<?xml version="1.0" standalone="no"?>
<!DOCTYPE svg PUBLIC "-//W3C//DTD SVG 20010904//EN"
 "http://www.w3.org/TR/2001/REC-SVG-20010904/DTD/svg10.dtd">
<svg version="1.0" xmlns="http://www.w3.org/2000/svg"
 width="893.000000pt" height="893.000000pt" viewBox="0 0 893.000000 893.000000"
 preserveAspectRatio="xMidYMid meet">
<metadata>
Created by potrace 1.11, written by Peter Selinger 2001-2013
</metadata>
<g transform="translate(0.000000,893.000000) scale(0.100000,-0.100000)"
fill="#000000" stroke="none">
<path d="M4228 8925 c-2 -2 -48 -6 -103 -9 -55 -4 -107 -9 -115 -11 -8 -2 -42
-6 -75 -10 -104 -11 -130 -14 -246 -35 -689 -119 -1352 -409 -1924 -841 -71
-54 -139 -106 -150 -116 -12 -10 -54 -47 -95 -82 -167 -144 -389 -378 -546
-576 -443 -556 -754 -1224 -885 -1900 -18 -94 -40 -220 -43 -250 -6 -50 -18
-149 -22 -168 -28 -155 -24 -723 6 -967 19 -149 22 -175 26 -195 2 -11 11 -60
19 -110 38 -221 147 -602 235 -820 237 -592 556 -1078 995 -1520 72 -72 164
-160 205 -196 41 -35 83 -72 95 -82 36 -33 218 -172 285 -218 36 -24 67 -46
70 -49 26 -28 320 -200 481 -282 228 -117 610 -270 755 -303 10 -2 60 -16 109
-30 153 -44 415 -98 535 -110 23 -2 59 -7 79 -9 167 -22 298 -29 531 -30 236
-1 400 8 550 29 19 2 60 7 90 10 30 4 114 17 185 31 172 32 161 30 235 49 36
9 72 18 80 20 88 17 439 134 547 181 17 8 33 14 36 14 14 0 381 178 445 215 9
6 49 28 87 49 39 22 79 45 90 52 166 109 346 232 371 253 16 14 45 37 64 51
218 161 586 535 774 786 33 43 71 95 86 114 51 67 198 296 257 400 78 139 195
379 243 501 12 30 27 65 33 79 5 14 11 32 13 40 2 8 7 23 13 35 13 26 89 249
100 295 5 19 20 78 35 130 14 52 27 106 30 120 2 14 9 43 14 65 6 22 13 54 16
70 73 441 79 512 80 875 0 209 -6 352 -19 460 -2 14 -6 50 -9 80 -6 46 -28
194 -41 265 -3 16 -37 180 -50 235 -37 170 -162 547 -229 695 -8 17 -28 64
-46 105 -117 268 -328 619 -529 879 -169 218 -404 469 -586 627 -44 38 -82 71
-85 75 -3 3 -59 47 -124 98 -128 98 -392 277 -491 331 -33 18 -64 36 -70 40
-28 22 -287 149 -405 200 -248 106 -532 200 -775 257 -129 29 -422 76 -555 89
-41 4 -88 8 -105 11 -36 4 -572 12 -577 8z"/>
</g>
</svg>
